<svg width="517" height="252" viewBox="0 0 517 252" fill="none" xmlns="http://www.w3.org/2000/svg">
<path fill-rule="evenodd" clip-rule="evenodd" d="M516.727 7.69998L233.347 7.53C249.307 25.53 249.087 44.56 249.087 44.56H249.077C241.387 18.43 223.267 -0.540007 185.607 0.179993L90.4173 0C24.2673 0.58 7.22736 67.6 1.82736 121.96C-2.80264 168.6 -3.41265 240.23 60.5674 240.23H142.857L149.027 251.78L218.007 251.48L207.317 232.18C244.447 209 248.447 156.4 252.057 115.78C254.227 96.13 255.037 75.15 251.827 56.53H511.587L516.727 7.69998ZM195.247 117.53C188.127 199.18 160.227 186.61 93.6573 186.78L32.5973 187.09L66.2273 177.99C62.3473 174.11 59.4673 169.11 57.5973 163.19C55.4673 158.24 47.3273 51.23 105.807 50.09C172.267 48.78 201.777 42.7 195.247 117.53Z" fill="url(#paint0_linear_1_3)"/>
<path fill-rule="evenodd" clip-rule="evenodd" d="M507.577 99.78L503.577 138H503.537L492.917 244.25H323.227C253.827 242.21 259.357 149.44 268.867 99.21H327.337C322.827 116.81 313.937 166.23 327.897 182.04L292.877 191.51L353.947 191.21L444.607 191.38L449.437 144.28L472.797 137.96L450.077 138.07L450.087 138H423.127L427.257 99.55L507.577 99.78Z" fill="url(#paint1_linear_1_3)"/>
<defs>
<linearGradient id="paint0_linear_1_3" x1="0.00156138" y1="125.895" x2="516.729" y2="125.895" gradientUnits="userSpaceOnUse">
<stop stop-color="#00247E"/>
<stop offset="1" stop-color="#0C5ADB"/>
</linearGradient>
<linearGradient id="paint1_linear_1_3" x1="263.284" y1="171.735" x2="507.579" y2="171.735" gradientUnits="userSpaceOnUse">
<stop stop-color="#00247E"/>
<stop offset="1" stop-color="#0C5ADB"/>
</linearGradient>
</defs>
</svg>
